<svg width="32" height="32" viewBox="0 0 32 32" fill="none" xmlns="http://www.w3.org/2000/svg">
<g clip-path="url(#clip0_59_1092)">
<path d="M16 32C16 32 4.79999 17.392 4.79999 11.2C4.79999 9.7292 5.08968 8.27279 5.65254 6.91395C6.21539 5.5551 7.04038 4.32042 8.08039 3.2804C9.12041 2.24039 10.3551 1.4154 11.7139 0.852549C13.0728 0.289697 14.5292 0 16 0C17.4708 0 18.9272 0.289697 20.286 0.852549C21.6449 1.4154 22.8796 2.24039 23.9196 3.2804C24.9596 4.32042 25.7846 5.5551 26.3474 6.91395C26.9103 8.27279 27.2 9.7292 27.2 11.2C27.2 17.392 16 32 16 32ZM16 14.4C16.8487 14.4 17.6626 14.0629 18.2627 13.4627C18.8628 12.8626 19.2 12.0487 19.2 11.2C19.2 10.3513 18.8628 9.53737 18.2627 8.93726C17.6626 8.33714 16.8487 8 16 8C15.1513 8 14.3374 8.33714 13.7372 8.93726C13.1371 9.53737 12.8 10.3513 12.8 11.2C12.8 12.0487 13.1371 12.8626 13.7372 13.4627C14.3374 14.0629 15.1513 14.4 16 14.4Z" fill="#CBCBCB"/>
</g>
<defs>
<clipPath id="clip0_59_1092">
<rect width="32" height="32" fill="white"/>
</clipPath>
</defs>
</svg>
