<svg width="32" height="32" viewBox="0 0 32 32" fill="none" xmlns="http://www.w3.org/2000/svg">
<path d="M18.6667 13.3333V18.6667H13.3333V13.3333H18.6667ZM21.3333 13.3333H28V18.6667H21.3333V13.3333ZM18.6667 28H13.3333V21.3333H18.6667V28ZM21.3333 28V21.3333H28V26.6667C28 27.0203 27.8595 27.3594 27.6095 27.6095C27.3594 27.8595 27.0203 28 26.6667 28H21.3333ZM18.6667 4V10.6667H13.3333V4H18.6667ZM21.3333 4H26.6667C27.0203 4 27.3594 4.14048 27.6095 4.39052C27.8595 4.64057 28 4.97971 28 5.33333V10.6667H21.3333V4ZM10.6667 13.3333V18.6667H4V13.3333H10.6667ZM10.6667 28H5.33333C4.97971 28 4.64057 27.8595 4.39052 27.6095C4.14048 27.3594 4 27.0203 4 26.6667V21.3333H10.6667V28ZM10.6667 4V10.6667H4V5.33333C4 4.97971 4.14048 4.64057 4.39052 4.39052C4.64057 4.14048 4.97971 4 5.33333 4H10.6667Z" fill="#CBCBCB"/>
</svg>
