<svg width="32" height="32" viewBox="0 0 32 32" fill="none" xmlns="http://www.w3.org/2000/svg">
<path d="M16 14.4C17.273 14.4 18.4939 13.8943 19.3941 12.9941C20.2943 12.0939 20.8 10.873 20.8 9.6C20.8 8.32696 20.2943 7.10606 19.3941 6.20589C18.4939 5.30571 17.273 4.8 16 4.8C14.7269 4.8 13.5061 5.30571 12.6059 6.20589C11.7057 7.10606 11.2 8.32696 11.2 9.6C11.2 10.873 11.7057 12.0939 12.6059 12.9941C13.5061 13.8943 14.7269 14.4 16 14.4ZM9.59999 12.8C9.59999 13.6487 9.26285 14.4626 8.66273 15.0627C8.06261 15.6629 7.24868 16 6.39999 16C5.5513 16 4.73736 15.6629 4.13725 15.0627C3.53713 14.4626 3.19999 13.6487 3.19999 12.8C3.19999 11.9513 3.53713 11.1374 4.13725 10.5373C4.73736 9.93714 5.5513 9.6 6.39999 9.6C7.24868 9.6 8.06261 9.93714 8.66273 10.5373C9.26285 11.1374 9.59999 11.9513 9.59999 12.8ZM2.38399 24.5216C2.11085 24.3664 1.9063 24.1138 1.81119 23.8144C1.52928 22.9013 1.52632 21.9249 1.8027 21.0101C2.07908 20.0954 2.62221 19.2839 3.36254 18.6797C4.10287 18.0754 5.0067 17.706 5.9583 17.6185C6.90989 17.5311 7.86593 17.7296 8.70399 18.1888C6.9818 19.8812 5.90388 22.1214 5.65599 24.5232C5.61919 24.8784 5.63359 25.2304 5.69599 25.5696C4.52825 25.4686 3.39726 25.1108 2.38399 24.5216ZM26.304 25.568C27.4716 25.4675 28.6026 25.1102 29.616 24.5216C29.8885 24.3661 30.0925 24.1136 30.1872 23.8144C30.4696 22.9012 30.4729 21.9245 30.1967 21.0095C29.9205 20.0944 29.3774 19.2826 28.637 18.6782C27.8965 18.0737 26.9925 17.704 26.0407 17.6166C25.0888 17.5291 24.1326 17.7278 23.2944 18.1872C25.0181 19.8796 26.0972 22.1204 26.3456 24.5232C26.3812 24.8722 26.3672 25.2245 26.304 25.5696V25.568ZM28.8 12.8C28.8 13.6487 28.4628 14.4626 27.8627 15.0627C27.2626 15.6629 26.4487 16 25.6 16C24.7513 16 23.9374 15.6629 23.3372 15.0627C22.7371 14.4626 22.4 13.6487 22.4 12.8C22.4 11.9513 22.7371 11.1374 23.3372 10.5373C23.9374 9.93714 24.7513 9.6 25.6 9.6C26.4487 9.6 27.2626 9.93714 27.8627 10.5373C28.4628 11.1374 28.8 11.9513 28.8 12.8ZM8.48639 25.904C8.32859 25.7627 8.20626 25.5862 8.12927 25.3889C8.05227 25.1915 8.02279 24.9788 8.04319 24.768C8.2467 22.7992 9.17286 20.9757 10.6426 19.65C12.1124 18.3243 14.0215 17.5906 16.0008 17.5906C17.9801 17.5906 19.8892 18.3243 21.3589 19.65C22.8287 20.9757 23.7549 22.7992 23.9584 24.768C23.9789 24.9789 23.9495 25.1916 23.8725 25.3889C23.7955 25.5863 23.6731 25.7628 23.5152 25.904C21.4579 27.7711 18.7782 28.8037 16 28.8C13.2223 28.8035 10.5432 27.7709 8.48639 25.904Z" fill="#CBCBCB"/>
</svg>
