<svg width="32" height="32" viewBox="0 0 32 32" fill="none" xmlns="http://www.w3.org/2000/svg">
<path d="M5.33333 26.6667C4.59999 26.6667 3.97199 26.4053 3.44933 25.8827C2.92666 25.36 2.66577 24.7324 2.66666 24V8C2.66666 7.26667 2.92799 6.63867 3.45066 6.116C3.97333 5.59333 4.60088 5.33244 5.33333 5.33333H26.6667C27.4 5.33333 28.028 5.59467 28.5507 6.11733C29.0733 6.64 29.3342 7.26756 29.3333 8V24C29.3333 24.7333 29.072 25.3613 28.5493 25.884C28.0267 26.4067 27.3991 26.6676 26.6667 26.6667H5.33333ZM16 17.3333L26.6667 10.6667V8L16 14.6667L5.33333 8V10.6667L16 17.3333Z" fill="#CBCBCB"/>
</svg>
