<svg width="32" height="32" viewBox="0 0 32 32" fill="none" xmlns="http://www.w3.org/2000/svg">
<path d="M5.33333 17.3333C6.06667 17.3333 6.66667 16.7333 6.66667 16C6.66667 15.2667 6.06667 14.6667 5.33333 14.6667C4.6 14.6667 4 15.2667 4 16C4 16.7333 4.6 17.3333 5.33333 17.3333ZM5.33333 22.6667C6.06667 22.6667 6.66667 22.0667 6.66667 21.3333C6.66667 20.6 6.06667 20 5.33333 20C4.6 20 4 20.6 4 21.3333C4 22.0667 4.6 22.6667 5.33333 22.6667ZM5.33333 12C6.06667 12 6.66667 11.4 6.66667 10.6667C6.66667 9.93333 6.06667 9.33333 5.33333 9.33333C4.6 9.33333 4 9.93333 4 10.6667C4 11.4 4.6 12 5.33333 12ZM10.6667 17.3333H26.6667C27.4 17.3333 28 16.7333 28 16C28 15.2667 27.4 14.6667 26.6667 14.6667H10.6667C9.93333 14.6667 9.33333 15.2667 9.33333 16C9.33333 16.7333 9.93333 17.3333 10.6667 17.3333ZM10.6667 22.6667H26.6667C27.4 22.6667 28 22.0667 28 21.3333C28 20.6 27.4 20 26.6667 20H10.6667C9.93333 20 9.33333 20.6 9.33333 21.3333C9.33333 22.0667 9.93333 22.6667 10.6667 22.6667ZM9.33333 10.6667C9.33333 11.4 9.93333 12 10.6667 12H26.6667C27.4 12 28 11.4 28 10.6667C28 9.93333 27.4 9.33333 26.6667 9.33333H10.6667C9.93333 9.33333 9.33333 9.93333 9.33333 10.6667ZM5.33333 17.3333C6.06667 17.3333 6.66667 16.7333 6.66667 16C6.66667 15.2667 6.06667 14.6667 5.33333 14.6667C4.6 14.6667 4 15.2667 4 16C4 16.7333 4.6 17.3333 5.33333 17.3333ZM5.33333 22.6667C6.06667 22.6667 6.66667 22.0667 6.66667 21.3333C6.66667 20.6 6.06667 20 5.33333 20C4.6 20 4 20.6 4 21.3333C4 22.0667 4.6 22.6667 5.33333 22.6667ZM5.33333 12C6.06667 12 6.66667 11.4 6.66667 10.6667C6.66667 9.93333 6.06667 9.33333 5.33333 9.33333C4.6 9.33333 4 9.93333 4 10.6667C4 11.4 4.6 12 5.33333 12ZM10.6667 17.3333H26.6667C27.4 17.3333 28 16.7333 28 16C28 15.2667 27.4 14.6667 26.6667 14.6667H10.6667C9.93333 14.6667 9.33333 15.2667 9.33333 16C9.33333 16.7333 9.93333 17.3333 10.6667 17.3333ZM10.6667 22.6667H26.6667C27.4 22.6667 28 22.0667 28 21.3333C28 20.6 27.4 20 26.6667 20H10.6667C9.93333 20 9.33333 20.6 9.33333 21.3333C9.33333 22.0667 9.93333 22.6667 10.6667 22.6667ZM9.33333 10.6667C9.33333 11.4 9.93333 12 10.6667 12H26.6667C27.4 12 28 11.4 28 10.6667C28 9.93333 27.4 9.33333 26.6667 9.33333H10.6667C9.93333 9.33333 9.33333 9.93333 9.33333 10.6667Z" fill="#CBCBCB"/>
</svg>
