<svg width="32" height="32" viewBox="0 0 32 32" fill="none" xmlns="http://www.w3.org/2000/svg">
<path fill-rule="evenodd" clip-rule="evenodd" d="M6.39999 26.4V5.60001H5.99999C5.68173 5.60001 5.3765 5.47358 5.15146 5.24854C4.92642 5.0235 4.79999 4.71827 4.79999 4.40001C4.79999 4.08175 4.92642 3.77653 5.15146 3.55148C5.3765 3.32644 5.68173 3.20001 5.99999 3.20001H26C26.3182 3.20001 26.6235 3.32644 26.8485 3.55148C27.0736 3.77653 27.2 4.08175 27.2 4.40001C27.2 4.71827 27.0736 5.0235 26.8485 5.24854C26.6235 5.47358 26.3182 5.60001 26 5.60001H25.6V26.4H26C26.3182 26.4 26.6235 26.5264 26.8485 26.7515C27.0736 26.9765 27.2 27.2818 27.2 27.6C27.2 27.9183 27.0736 28.2235 26.8485 28.4485C26.6235 28.6736 26.3182 28.8 26 28.8H20.4C20.0817 28.8 19.7765 28.6736 19.5515 28.4485C19.3264 28.2235 19.2 27.9183 19.2 27.6V23.6C19.2 23.2818 19.0736 22.9765 18.8485 22.7515C18.6235 22.5264 18.3182 22.4 18 22.4H14C13.6817 22.4 13.3765 22.5264 13.1515 22.7515C12.9264 22.9765 12.8 23.2818 12.8 23.6V27.6C12.8 27.9183 12.6736 28.2235 12.4485 28.4485C12.2235 28.6736 11.9182 28.8 11.6 28.8H5.99999C5.68173 28.8 5.3765 28.6736 5.15146 28.4485C4.92642 28.2235 4.79999 27.9183 4.79999 27.6C4.79999 27.2818 4.92642 26.9765 5.15146 26.7515C5.3765 26.5264 5.68173 26.4 5.99999 26.4H6.39999ZM11.2 8.80001C11.2 8.58784 11.2843 8.38436 11.4343 8.23433C11.5843 8.0843 11.7878 8.00001 12 8.00001H13.6C13.8122 8.00001 14.0156 8.0843 14.1657 8.23433C14.3157 8.38436 14.4 8.58784 14.4 8.80001V10.4C14.4 10.6122 14.3157 10.8157 14.1657 10.9657C14.0156 11.1157 13.8122 11.2 13.6 11.2H12C11.7878 11.2 11.5843 11.1157 11.4343 10.9657C11.2843 10.8157 11.2 10.6122 11.2 10.4V8.80001ZM12 14.4C11.7878 14.4 11.5843 14.4843 11.4343 14.6343C11.2843 14.7844 11.2 14.9878 11.2 15.2V16.8C11.2 17.0122 11.2843 17.2157 11.4343 17.3657C11.5843 17.5157 11.7878 17.6 12 17.6H13.6C13.8122 17.6 14.0156 17.5157 14.1657 17.3657C14.3157 17.2157 14.4 17.0122 14.4 16.8V15.2C14.4 14.9878 14.3157 14.7844 14.1657 14.6343C14.0156 14.4843 13.8122 14.4 13.6 14.4H12ZM17.6 8.80001C17.6 8.58784 17.6843 8.38436 17.8343 8.23433C17.9843 8.0843 18.1878 8.00001 18.4 8.00001H20C20.2122 8.00001 20.4156 8.0843 20.5657 8.23433C20.7157 8.38436 20.8 8.58784 20.8 8.80001V10.4C20.8 10.6122 20.7157 10.8157 20.5657 10.9657C20.4156 11.1157 20.2122 11.2 20 11.2H18.4C18.1878 11.2 17.9843 11.1157 17.8343 10.9657C17.6843 10.8157 17.6 10.6122 17.6 10.4V8.80001ZM18.4 14.4C18.1878 14.4 17.9843 14.4843 17.8343 14.6343C17.6843 14.7844 17.6 14.9878 17.6 15.2V16.8C17.6 17.0122 17.6843 17.2157 17.8343 17.3657C17.9843 17.5157 18.1878 17.6 18.4 17.6H20C20.2122 17.6 20.4156 17.5157 20.5657 17.3657C20.7157 17.2157 20.8 17.0122 20.8 16.8V15.2C20.8 14.9878 20.7157 14.7844 20.5657 14.6343C20.4156 14.4843 20.2122 14.4 20 14.4H18.4Z" fill="#CBCBCB"/>
</svg>
