<svg width="32" height="32" viewBox="0 0 32 32" fill="none" xmlns="http://www.w3.org/2000/svg">
<path fill-rule="evenodd" clip-rule="evenodd" d="M16.026 4C13.0147 4 10.2713 4.99467 8.648 5.80733C8.50134 5.88067 8.36467 5.95267 8.23734 6.022C7.98534 6.15933 7.77067 6.28733 7.6 6.4L9.44667 9.11867L10.316 9.46467C13.7133 11.1787 18.2693 11.1787 21.6673 9.46467L22.654 8.95267L24.4 6.4C24.0384 6.16404 23.6623 5.95095 23.274 5.762C21.6587 4.958 18.9807 4 16.0267 4H16.026ZM11.7313 7.07733C11.0774 6.95497 10.4316 6.7929 9.79734 6.592C11.318 5.91667 13.584 5.2 16.026 5.2C17.7173 5.2 19.3167 5.544 20.6393 5.98C19.0893 6.198 17.4353 6.568 15.8593 7.02333C14.6193 7.382 13.17 7.34333 11.7313 7.07733ZM22.3713 10.4533L22.2073 10.536C18.47 12.4213 13.5127 12.4213 9.77534 10.536L9.62 10.4573C4.00534 16.618 -0.281331 27.998 16.026 27.998C32.3333 27.998 27.942 16.4053 22.3713 10.4533ZM15.3333 16C14.9797 16 14.6406 16.1405 14.3905 16.3905C14.1405 16.6406 14 16.9797 14 17.3333C14 17.687 14.1405 18.0261 14.3905 18.2761C14.6406 18.5262 14.9797 18.6667 15.3333 18.6667V16ZM16.6667 14.6667V14H15.3333V14.6667C14.6261 14.6667 13.9478 14.9476 13.4477 15.4477C12.9476 15.9478 12.6667 16.6261 12.6667 17.3333C12.6667 18.0406 12.9476 18.7189 13.4477 19.219C13.9478 19.719 14.6261 20 15.3333 20V22.6667C14.7533 22.6667 14.2593 22.2967 14.0753 21.778C14.048 21.6931 14.004 21.6146 13.9458 21.5471C13.8876 21.4795 13.8165 21.4244 13.7366 21.3848C13.6568 21.3452 13.5698 21.3221 13.4808 21.3167C13.3918 21.3113 13.3027 21.3239 13.2186 21.3536C13.1346 21.3833 13.0573 21.4295 12.9915 21.4896C12.9256 21.5497 12.8725 21.6223 12.8352 21.7033C12.7979 21.7843 12.7772 21.8719 12.7744 21.961C12.7715 22.0501 12.7866 22.1388 12.8187 22.222C13.0026 22.742 13.3431 23.1922 13.7935 23.5106C14.2438 23.829 14.7818 24 15.3333 24V24.6667H16.6667V24C17.3739 24 18.0522 23.719 18.5523 23.219C19.0524 22.7189 19.3333 22.0406 19.3333 21.3333C19.3333 20.6261 19.0524 19.9478 18.5523 19.4477C18.0522 18.9476 17.3739 18.6667 16.6667 18.6667V16C17.2467 16 17.7407 16.37 17.9247 16.8887C17.952 16.9735 17.996 17.052 18.0542 17.1196C18.1124 17.1871 18.1835 17.2423 18.2634 17.2819C18.3432 17.3215 18.4302 17.3446 18.5192 17.35C18.6082 17.3553 18.6973 17.3428 18.7814 17.3131C18.8654 17.2834 18.9427 17.2371 19.0085 17.1771C19.0744 17.117 19.1275 17.0443 19.1648 16.9634C19.2021 16.8824 19.2228 16.7948 19.2256 16.7057C19.2285 16.6166 19.2134 16.5278 19.1813 16.4447C18.9974 15.9247 18.6569 15.4745 18.2065 15.1561C17.7562 14.8377 17.2182 14.6667 16.6667 14.6667ZM16.6667 20V22.6667C17.0203 22.6667 17.3594 22.5262 17.6095 22.2761C17.8595 22.0261 18 21.687 18 21.3333C18 20.9797 17.8595 20.6406 17.6095 20.3905C17.3594 20.1405 17.0203 20 16.6667 20Z" fill="#CBCBCB"/>
</svg>
