<svg width="81" height="44" viewBox="0 0 81 44" fill="none" xmlns="http://www.w3.org/2000/svg">
<path d="M36.9346 43.0547C31.7842 43.0547 27.0557 42.1406 22.749 40.3125C21.8525 41.209 20.7363 41.7979 19.4004 42.0791C18.082 42.3779 16.3154 42.5273 14.1006 42.5273C11.9033 42.5273 9.76758 42.2725 7.69336 41.7627C5.61914 41.2529 3.97559 40.6289 2.7627 39.8906C1.53223 39.1523 0.916992 38.4316 0.916992 37.7285C0.916992 37.3242 1.09277 36.999 1.44434 36.7529C1.7959 36.5068 2.2002 36.3838 2.65723 36.3838C4.27441 36.3838 5.46973 36.1289 6.24316 35.6191C7.03418 35.0918 7.79004 34.125 8.51074 32.7188C9.24902 31.3125 9.96094 29.6953 10.6465 27.8672C11.332 26.0215 11.9648 24.2988 12.5449 22.6992C13.1426 21.0996 13.8105 19.4824 14.5488 17.8477C16.1836 14.2793 18.2314 11.9063 20.6924 10.7285C21.8701 10.166 23.4082 9.73535 25.3066 9.43652C27.2051 9.12012 28.6904 8.96191 29.7627 8.96191C30.8525 8.96191 31.5557 8.97949 31.8721 9.01465C32.2061 9.03223 32.54 9.08496 32.874 9.17285C33.542 9.34863 33.876 9.71777 33.876 10.2803C33.876 10.667 33.7969 11.0273 33.6387 11.3613C33.498 11.6777 33.1025 12.3633 32.4521 13.418C31.8018 14.4727 30.9404 16.6787 29.8682 20.0361C34.1572 19.7725 37.4355 18.8848 39.7031 17.373C41.9707 15.8438 43.1045 13.8926 43.1045 11.5195C43.1045 8.30273 40.3799 6.47461 34.9307 6.03516C33.8232 5.94727 32.2061 5.90332 30.0791 5.90332C27.9521 5.90332 25.5879 6.1582 22.9863 6.66797C20.3848 7.16016 18.3457 7.70508 16.8691 8.30273C15.4102 8.90039 14.0918 9.4541 12.9141 9.96387C11.7363 10.4561 10.9805 10.7021 10.6465 10.7021C9.73242 10.7021 9.27539 10.4033 9.27539 9.80566C9.27539 9.19043 9.84668 8.46094 10.9893 7.61719C12.1318 6.77344 13.7051 5.93848 15.709 5.1123C17.7305 4.28613 19.9629 3.52148 22.4062 2.81836C27.9258 1.23633 33.6299 0.445312 39.5186 0.445312C45.4072 0.445312 49.8721 1.36816 52.9131 3.21387C55.9717 5.04199 57.501 7.46777 57.501 10.4912C57.501 13.5146 55.9805 16.0283 52.9395 18.0322C49.916 20.0361 45.7588 21.1436 40.4678 21.3545C43.8604 21.3896 46.9805 22.207 49.8281 23.8066C51.1992 24.5625 52.3154 25.5557 53.1768 26.7861C54.0381 28.0166 54.4688 29.4404 54.4688 31.0576C54.4688 32.6748 54.126 34.1953 53.4404 35.6191C52.7725 37.0254 51.876 38.1855 50.751 39.0996C49.6436 40.0137 48.3164 40.7695 46.7695 41.3672C43.9395 42.4922 40.6611 43.0547 36.9346 43.0547ZM29.1299 22.3564C28.7959 23.4639 28.1367 25.7051 27.1523 29.0801C26.168 32.4375 25.4824 34.6875 25.0957 35.8301C24.709 36.9551 24.5068 37.5352 24.4893 37.5703C25.0518 37.6406 25.9482 37.6758 27.1787 37.6758C28.4268 37.6758 29.8154 37.5088 31.3447 37.1748C32.8916 36.8232 34.2715 36.2959 35.4844 35.5928C36.7148 34.8896 37.6729 33.9404 38.3584 32.7451C39.0615 31.5498 39.4131 30.0996 39.4131 28.3945C39.4131 26.6895 38.4199 25.2744 36.4336 24.1494C34.4473 23.0244 32.0127 22.4268 29.1299 22.3564ZM78.9375 39.7588C77.918 40.9014 76.5732 41.8066 74.9033 42.4746C73.251 43.1426 71.4404 43.4766 69.4717 43.4766C67.5205 43.4766 65.8682 42.9756 64.5146 41.9736C63.1611 40.9717 62.4844 39.7588 62.4844 38.335C62.4844 36.9111 63.0029 35.6191 64.04 34.459C65.0947 33.2812 66.4482 32.3584 68.1006 31.6904C69.7529 31.0225 71.5547 30.6885 73.5059 30.6885C75.4746 30.6885 77.127 31.207 78.4629 32.2441C79.8164 33.2637 80.4932 34.4854 80.4932 35.9092C80.4932 37.3154 79.9746 38.5986 78.9375 39.7588Z" fill="#333A41"/>
</svg>
