<svg width="32" height="32" viewBox="0 0 32 32" fill="none" xmlns="http://www.w3.org/2000/svg">
<path d="M13.24 17.32C13.3733 17.32 16.4667 17.4533 18.3067 17H18.32C20.44 16.48 23.3867 14.9867 24.1467 10.1067C24.1467 10.1067 25.84 4 17.44 4H10.2267C9.57334 4 9.01334 4.48 8.90667 5.12L5.84 24.5333C5.77334 24.9333 6.09334 25.3067 6.49334 25.3067H11.0667L12.1867 18.2133C12.2667 17.7067 12.7067 17.32 13.24 17.32Z" fill="#CBCBCB"/>
<path d="M25.32 11.0533C24.24 16.0267 20.84 18.6533 15.4267 18.6533H13.4667L12.0933 27.3467C12.04 27.6933 12.3067 28 12.6533 28H15.1867C15.64 28 16.04 27.6667 16.1067 27.2133C16.2133 26.68 16.8 22.7867 16.92 22.12C16.9867 21.6667 17.3867 21.3333 17.84 21.3333H18.4267C22.1867 21.3333 25.1333 19.8 26 15.3867C26.3467 13.6 26.16 12.1333 25.32 11.0533Z" fill="#CBCBCB"/>
</svg>
