<svg width="32" height="32" viewBox="0 0 32 32" fill="none" xmlns="http://www.w3.org/2000/svg">
<path d="M16 29.1907C8.63599 29.1907 2.66666 23.2213 2.66666 15.8573C2.66666 8.49466 8.63599 2.524 16 2.524C23.364 2.524 29.3333 8.49466 29.3333 15.8573C29.3333 23.2213 23.364 29.1907 16 29.1907ZM17.7013 18.2333L18.2267 17.8227C18.7096 17.4453 19.1134 16.9766 19.4152 16.4432C19.7169 15.9098 19.9107 15.3221 19.9853 14.7138C20.06 14.1056 20.0141 13.4885 19.8503 12.898C19.6865 12.3074 19.408 11.7549 19.0307 11.272C18.6533 10.7891 18.1846 10.3852 17.6512 10.0835C17.1177 9.78171 16.5301 9.58797 15.9218 9.51331C15.3135 9.43865 14.6965 9.48454 14.106 9.64834C13.5154 9.81215 12.9629 10.0907 12.48 10.468L11.9547 10.8787C11.8138 10.9854 11.6955 11.1191 11.6068 11.2719C11.5181 11.4248 11.4606 11.5938 11.4377 11.769C11.4149 11.9443 11.4271 12.1223 11.4737 12.2928C11.5203 12.4633 11.6003 12.6229 11.7091 12.7621C11.8179 12.9014 11.9533 13.0177 12.1074 13.1042C12.2616 13.1907 12.4314 13.2456 12.607 13.2659C12.7825 13.2862 12.9604 13.2714 13.1302 13.2223C13.3 13.1732 13.4583 13.0908 13.596 12.98L14.1213 12.5693C14.5395 12.2448 15.0692 12.0993 15.5945 12.1646C16.1197 12.23 16.5977 12.5009 16.9235 12.918C17.2494 13.3351 17.3967 13.8644 17.333 14.3898C17.2694 14.9153 17 15.3941 16.584 15.7213L16.0587 16.132C15.9207 16.2399 15.8053 16.3738 15.7191 16.5263C15.6329 16.6787 15.5776 16.8467 15.5563 17.0205C15.535 17.1943 15.5481 17.3707 15.595 17.5394C15.6418 17.7082 15.7215 17.866 15.8293 18.004C15.9372 18.142 16.0712 18.2574 16.2236 18.3436C16.3761 18.4297 16.544 18.4851 16.7178 18.5064C16.8917 18.5277 17.068 18.5145 17.2367 18.4677C17.4055 18.4208 17.5633 18.3412 17.7013 18.2333ZM16 22.524C16.3536 22.524 16.6927 22.3835 16.9428 22.1335C17.1928 21.8834 17.3333 21.5443 17.3333 21.1907C17.3333 20.837 17.1928 20.4979 16.9428 20.2479C16.6927 19.9978 16.3536 19.8573 16 19.8573C15.6464 19.8573 15.3072 19.9978 15.0572 20.2479C14.8071 20.4979 14.6667 20.837 14.6667 21.1907C14.6667 21.5443 14.8071 21.8834 15.0572 22.1335C15.3072 22.3835 15.6464 22.524 16 22.524Z" fill="#CBCBCB"/>
</svg>
