<svg width="32" height="32" viewBox="0 0 32 32" fill="none" xmlns="http://www.w3.org/2000/svg">
<path fill-rule="evenodd" clip-rule="evenodd" d="M14.4 4.86668C14.8616 4.52048 15.423 4.33334 16 4.33334C16.577 4.33334 17.1384 4.52048 17.6 4.86668L26.9333 11.8667C27.2645 12.1151 27.5333 12.4372 27.7185 12.8074C27.9036 13.1777 28 13.586 28 14V25.3333C28 26.0406 27.719 26.7189 27.219 27.219C26.7189 27.7191 26.0406 28 25.3333 28H6.66667C5.95942 28 5.28115 27.7191 4.78105 27.219C4.28095 26.7189 4 26.0406 4 25.3333V14C4 13.586 4.09639 13.1777 4.28153 12.8074C4.46667 12.4372 4.73548 12.1151 5.06667 11.8667L14.4 4.86668ZM17.3333 13.3333C17.3333 12.9797 17.1929 12.6406 16.9428 12.3905C16.6928 12.1405 16.3536 12 16 12C15.6464 12 15.3072 12.1405 15.0572 12.3905C14.8071 12.6406 14.6667 12.9797 14.6667 13.3333V21.3333C14.6667 21.687 14.8071 22.0261 15.0572 22.2762C15.3072 22.5262 15.6464 22.6667 16 22.6667C16.3536 22.6667 16.6928 22.5262 16.9428 22.2762C17.1929 22.0261 17.3333 21.687 17.3333 21.3333V13.3333ZM12 17.3333C12 16.9797 11.8595 16.6406 11.6095 16.3905C11.3594 16.1405 11.0203 16 10.6667 16C10.313 16 9.97391 16.1405 9.72386 16.3905C9.47381 16.6406 9.33333 16.9797 9.33333 17.3333V21.3333C9.33333 21.687 9.47381 22.0261 9.72386 22.2762C9.97391 22.5262 10.313 22.6667 10.6667 22.6667C11.0203 22.6667 11.3594 22.5262 11.6095 22.2762C11.8595 22.0261 12 21.687 12 21.3333V17.3333ZM22.6667 20C22.6667 19.6464 22.5262 19.3072 22.2761 19.0572C22.0261 18.8072 21.687 18.6667 21.3333 18.6667C20.9797 18.6667 20.6406 18.8072 20.3905 19.0572C20.1405 19.3072 20 19.6464 20 20V21.3333C20 21.687 20.1405 22.0261 20.3905 22.2762C20.6406 22.5262 20.9797 22.6667 21.3333 22.6667C21.687 22.6667 22.0261 22.5262 22.2761 22.2762C22.5262 22.0261 22.6667 21.687 22.6667 21.3333V20Z" fill="#CBCBCB"/>
</svg>
